<svg width="32" height="32" viewBox="0 0 32 32" fill="none" xmlns="http://www.w3.org/2000/svg">
<path fill-rule="evenodd" clip-rule="evenodd" d="M15.9999 4.1056L13.0495 7.15827C12.7355 7.48319 12.303 7.66667 11.8511 7.66667H7.66661V11.8512C7.66661 12.3031 7.48313 12.7356 7.15821 13.0496L4.10554 16L7.15821 18.9504C7.48313 19.2644 7.66661 19.6969 7.66661 20.1488V24.3333H11.8511C12.303 24.3333 12.7355 24.5168 13.0495 24.8417L15.9999 27.8944L18.9503 24.8417C19.2644 24.5168 19.6969 24.3333 20.1488 24.3333H24.3333V20.1488C24.3333 19.6969 24.5168 19.2644 24.8417 18.9504L27.8943 16L24.8417 13.0496C24.5168 12.7356 24.3333 12.3031 24.3333 11.8512V7.66667H20.1487C19.6969 7.66667 19.2644 7.48319 18.9503 7.15827L15.9999 4.1056ZM14.8015 2.46769C15.4567 1.78982 16.5432 1.78982 17.1984 2.46769L20.2902 5.66667H24.6666C25.5871 5.66667 26.3333 6.41286 26.3333 7.33333V11.7098L29.5323 14.8016C30.2101 15.4567 30.2101 16.5433 29.5323 17.1984L26.3333 20.2902V24.6667C26.3333 25.5871 25.5871 26.3333 24.6666 26.3333H20.2902L17.1984 29.5323C16.5432 30.2102 15.4567 30.2102 14.8015 29.5323L11.7097 26.3333H7.33327C6.4128 26.3333 5.66661 25.5871 5.66661 24.6667V20.2902L2.46763 17.1984C1.78976 16.5433 1.78976 15.4567 2.46763 14.8016L5.66661 11.7098V7.33333C5.66661 6.41286 6.4128 5.66667 7.33327 5.66667H11.7097L14.8015 2.46769Z" fill="white"/>
<path fill-rule="evenodd" clip-rule="evenodd" d="M9.66661 16C9.66661 12.5022 12.5021 9.66667 15.9999 9.66667C19.4977 9.66667 22.3333 12.5022 22.3333 16C22.3333 19.4978 19.4977 22.3333 15.9999 22.3333C12.5021 22.3333 9.66661 19.4978 9.66661 16ZM15.9999 11.6667C13.6067 11.6667 11.6666 13.6068 11.6666 16C11.6666 18.3932 13.6067 20.3333 15.9999 20.3333C18.3932 20.3333 20.3333 18.3932 20.3333 16C20.3333 13.6068 18.3932 11.6667 15.9999 11.6667Z" fill="white"/>
</svg>
